<svg width="205" height="205" viewBox="0 0 205 205" fill="none" xmlns="http://www.w3.org/2000/svg">
<path d="M130.593 125.365C129.339 124.955 121.415 121.384 126.367 106.332H126.296C139.203 93.0384 149.066 71.6475 149.066 50.5877C149.066 18.2056 127.533 1.22998 102.508 1.22998C77.4662 1.22998 56.0516 18.1977 56.0516 50.5877C56.0516 71.7342 65.86 93.2119 78.846 106.474C83.9079 119.752 74.8564 124.679 72.9641 125.373C46.7556 134.851 16.0056 152.126 16.0056 169.18V175.575C16.0056 198.811 61.0583 204.093 102.752 204.093C144.509 204.093 188.994 198.811 188.994 175.575V169.18C188.994 151.613 158.094 134.472 130.593 125.365Z" fill="black"/>
</svg>
